# File created by Blade
# Date/Time:  Wed Jan 21 16:09:38 2015
# Frame Rate: 120.000 fps
#------------------------------------------------------
:FULLY-SPECIFIED
:DEGREES
558
root 11.979659 33.077968 -21.917618 -193.008233 75.078339 -254.861024
Spine 65.575011 -12.887473 2.068066
Head -36.494922 -4.990686 7.370484
LeftShoulder -7.530187 -34.256230 22.220717
LeftArm -39.031895 -7.748509 -21.262885
LeftForeArm -39.481267 -0.000000 -5.469001
LeftHand -10.880142 0.000000 0.286959
LeftHandThumb1 -26.253704 0.000000 33.147579
RightShoulder -10.669755 -1.233644 -12.615923
RightArm -41.722189 47.151953 13.633698
RightForeArm 16.249879 -0.000000 10.082597
RightHand -20.125561 -0.000000 -15.226770
RightHandThumb1 -24.326973 -0.000000 -32.862282
LeftUpLeg -37.753757 -12.941374 -18.299542
LeftLeg -15.080081 -0.000000 0.000000
LeftFoot -6.703950 28.880078 16.242667
LeftToeBase -139.218404 -0.000000 0.000000
RightUpLeg -85.466745 -8.949658 -8.968512
RightLeg -2.260821 -0.000000 0.000000
RightFoot 10.022651 -26.072089 1.300389
RightToeBase 28.843293 -0.000000 -0.000000
559
root 11.989978 33.075714 -21.932644 -192.882666 75.134964 -254.771446
Spine 65.596524 -12.889030 2.116785
Head -36.585365 -4.967372 7.355440
LeftShoulder -7.514310 -34.285212 22.211704
LeftArm -39.098642 -7.775138 -21.261048
LeftForeArm -39.521487 -0.000000 -5.482475
LeftHand -10.850029 -0.000000 0.275051
LeftHandThumb1 -26.253704 0.000000 33.147579
RightShoulder -10.647851 -1.139692 -12.602238
RightArm -41.847836 47.070600 13.551269
RightForeArm 16.338365 -0.000000 10.103042
RightHand -20.154549 0.000000 -15.272656
RightHandThumb1 -24.326973 -0.000000 -32.862282
LeftUpLeg -37.677943 -12.841504 -18.336681
LeftLeg -15.254408 -0.000000 0.000000
LeftFoot -6.687728 28.765885 16.197751
LeftToeBase -139.288253 -0.000000 0.000000
RightUpLeg -85.464961 -8.918594 -8.966617
RightLeg -2.297932 -0.000000 0.000000
RightFoot 10.004425 -26.099273 1.256753
RightToeBase 28.721970 -0.000000 -0.000000
560
root 11.996788 33.074929 -21.947535 -192.651557 75.164382 -254.595257
Spine 65.576092 -12.917104 2.231888
Head -36.645818 -4.989158 7.297974
LeftShoulder -7.444540 -34.291788 22.166921
LeftArm -39.153855 -7.827211 -21.269207
LeftForeArm -39.531461 0.000000 -5.493221
LeftHand -10.794215 -0.000000 0.197483
LeftHandThumb1 -26.253704 0.000000 33.147579
RightShoulder -10.674288 -1.139708 -12.607692
RightArm -41.892821 47.038616 13.545512
RightForeArm 16.504441 -0.000000 10.074097
RightHand -20.153648 -0.000000 -15.221951
RightHandThumb1 -24.326973 -0.000000 -32.862282
LeftUpLeg -37.627915 -12.758759 -18.374912
LeftLeg -15.411723 -0.000000 0.000000
LeftFoot -6.690058 28.586104 16.145763
LeftToeBase -139.377184 -0.000000 0.000000
RightUpLeg -85.491228 -8.927491 -8.911600
RightLeg -2.348266 -0.000000 0.000000
RightFoot 10.044315 -26.116650 1.180636
RightToeBase 28.821663 -0.000000 -0.000000
561
root 12.001290 33.074108 -21.960201 -192.408939 75.185719 -254.430457
Spine 65.536854 -12.954213 2.311988
Head -36.704316 -4.992662 7.268539
LeftShoulder -7.427124 -34.263270 22.141394
LeftArm -39.166768 -7.874033 -21.301606
LeftForeArm -39.667576 -0.000000 -5.456378
LeftHand -10.771442 -0.000000 0.330343
LeftHandThumb1 -26.253704 0.000000 33.147579
RightShoulder -10.675064 -1.245553 -12.573795
RightArm -41.902070 47.112075 13.574042
RightForeArm 16.631901 -0.000000 10.067526
RightHand -20.178365 -0.000000 -15.288646
RightHandThumb1 -24.326973 -0.000000 -32.862282
LeftUpLeg -37.605922 -12.709456 -18.392209
LeftLeg -15.568947 -0.000000 0.000000
LeftFoot -6.682877 28.444516 16.076765
LeftToeBase -139.510357 -0.000000 0.000000
RightUpLeg -85.539742 -8.938038 -8.919244
RightLeg -2.371224 -0.000000 0.000000
RightFoot 10.011481 -26.130099 1.155352
RightToeBase 28.896044 -0.000000 -0.000000
562
root 11.999156 33.074299 -21.971876 -192.148559 75.183567 -254.303396
Spine 65.434598 -13.016974 2.355431
Head -36.745117 -4.948750 7.241481
LeftShoulder -7.470451 -34.225869 22.160502
LeftArm -39.155378 -7.896562 -21.341991
LeftForeArm -39.781448 -0.000000 -5.448249
LeftHand -10.786152 -0.000000 0.315662
LeftHandThumb1 -26.253704 0.000000 33.147579
RightShoulder -10.695088 -1.192976 -12.597858
RightArm -41.940653 47.077723 13.592013
RightForeArm 16.566955 -0.000000 10.058205
RightHand -20.110065 -0.000000 -15.218967
RightHandThumb1 -24.326973 -0.000000 -32.862282
LeftUpLeg -37.655027 -12.718381 -18.395984
LeftLeg -15.705194 -0.000000 0.000000
LeftFoot -6.640658 28.322096 16.021073
LeftToeBase -139.587830 -0.000000 0.000000
RightUpLeg -85.665525 -8.974265 -8.959277
RightLeg -2.362080 -0.000000 0.000000
RightFoot 10.030764 -26.232887 1.139939
RightToeBase 28.724915 -0.000000 -0.000000
563
root 12.018237 33.073719 -21.987294 -191.769029 75.219374 -253.902468
Spine 65.556687 -13.127463 2.432636
Head -36.843371 -4.855052 7.130059
LeftShoulder -7.533493 -34.248458 22.152590
LeftArm -39.174815 -7.932474 -21.386111
LeftForeArm -39.771966 0.000000 -5.469954
LeftHand -10.716725 0.000000 0.249741
LeftHandThumb1 -26.253704 0.000000 33.147579
RightShoulder -10.620803 -1.080917 -12.681733
RightArm -42.122703 47.098861 13.505992
RightForeArm 16.563446 -0.000000 10.070825
RightHand -20.156441 0.000000 -15.156643
RightHandThumb1 -24.326973 -0.000000 -32.862282
LeftUpLeg -37.493524 -12.633010 -18.386114
LeftLeg -15.921964 -0.000000 0.000000
LeftFoot -6.625354 28.174410 15.909311
LeftToeBase -139.811339 -0.000000 0.000000
RightUpLeg -85.562084 -8.973546 -8.859599
RightLeg -2.474855 -0.000000 0.000000
RightFoot 10.039513 -26.237419 0.993316
RightToeBase 28.790475 -0.000000 -0.000000
564
root 12.015755 33.071952 -22.001909 -191.535093 75.212153 -253.792741
Spine 65.455129 -13.213150 2.441150
Head -36.856702 -4.777729 7.083960
LeftShoulder -7.576564 -34.239118 22.163413
LeftArm -39.204236 -7.919578 -21.390960
LeftForeArm -39.815571 -0.000000 -5.448047
LeftHand -10.780878 -0.000000 0.177878
LeftHandThumb1 -26.253704 0.000000 33.147579
RightShoulder -10.589262 -1.128312 -12.689800
RightArm -42.122107 47.152437 13.554399
RightForeArm 16.640401 0.000000 10.039282
RightHand -20.135312 -0.000000 -15.253294
RightHandThumb1 -24.326973 -0.000000 -32.862282
LeftUpLeg -37.535754 -12.625968 -18.423482
LeftLeg -16.039003 -0.000000 0.000000
LeftFoot -6.627817 28.051177 15.879256
LeftToeBase -139.877496 -0.000000 0.000000
RightUpLeg -85.677119 -9.021585 -8.906397
RightLeg -2.470691 -0.000000 0.000000
RightFoot 10.057625 -26.323697 0.979812
RightToeBase 28.863439 -0.000000 -0.000000
565
root 12.022085 33.074017 -22.012098 -190.951044 75.220449 -253.276757
Spine 65.424405 -13.285347 2.662031
Head -36.949608 -4.799784 6.993163
LeftShoulder -7.514495 -34.300946 22.098127
LeftArm -39.220008 -7.924759 -21.422718
LeftForeArm -39.807074 -0.000000 -5.409452
LeftHand -10.828316 -0.000000 0.155690
LeftHandThumb1 -26.253704 0.000000 33.147579
RightShoulder -10.667820 -1.156314 -12.742138
RightArm -42.182376 47.252574 13.537460
RightForeArm 16.654152 -0.000000 9.992965
RightHand -20.126400 -0.000000 -15.181470
RightHandThumb1 -24.326973 -0.000000 -32.862282
LeftUpLeg -37.542607 -12.611164 -18.351506
LeftLeg -16.142681 -0.000000 0.000000
LeftFoot -6.605072 27.927722 15.859623
LeftToeBase -139.924211 -0.000000 0.000000
RightUpLeg -85.697815 -9.056834 -8.807714
RightLeg -2.521316 -0.000000 0.000000
RightFoot 10.063493 -26.362740 0.916557
RightToeBase 28.981692 -0.000000 -0.000000
566
root 12.016929 33.073359 -22.024276 -190.828576 75.205263 -253.268198
Spine 65.319497 -13.289087 2.708398
Head -36.960641 -4.768501 7.016554
LeftShoulder -7.491706 -34.375667 22.136925
LeftArm -39.211165 -7.898173 -21.435693
LeftForeArm -39.771776 -0.000000 -5.439460
LeftHand -10.796320 0.000000 0.060036
LeftHandThumb1 -26.253704 0.000000 33.147579
RightShoulder -10.720130 -1.193877 -12.681229
RightArm -42.223210 47.253706 13.532649
RightForeArm 16.686994 -0.000000 10.027667
RightHand -20.204432 0.000000 -15.275932
RightHandThumb1 -24.326973 -0.000000 -32.862282
LeftUpLeg -37.609362 -12.650809 -18.365809
LeftLeg -16.210798 -0.000000 0.000000
LeftFoot -6.592219 27.891902 15.823876
LeftToeBase -140.001594 -0.000000 0.000000
RightUpLeg -85.808930 -9.100925 -8.919966
RightLeg -2.497655 -0.000000 0.000000
RightFoot 10.082105 -26.494742 0.912479
RightToeBase 28.664487 -0.000000 -0.000000
567
root 12.023263 33.074209 -22.036098 -190.486747 75.219781 -252.980055
Spine 65.313974 -13.358036 2.744787
Head -36.980421 -4.659731 6.985549
LeftShoulder -7.525877 -34.434099 22.151747
LeftArm -39.252133 -7.931471 -21.378158
LeftForeArm -39.665928 -0.000000 -5.438066
LeftHand -10.734273 -0.000000 0.053929
LeftHandThumb1 -26.253704 0.000000 33.147579
RightShoulder -10.639472 -1.174478 -12.651835
RightArm -42.328728 47.261298 13.479728
RightForeArm 16.778295 -0.000000 10.047214
RightHand -20.174275 0.000000 -15.243389
RightHandThumb1 -24.326973 -0.000000 -32.862282
LeftUpLeg -37.611164 -12.627185 -18.346351
LeftLeg -16.286852 -0.000000 0.000000
LeftFoot -6.585563 27.807917 15.773379
LeftToeBase -140.060287 -0.000000 0.000000
RightUpLeg -85.808220 -9.116352 -8.928480
RightLeg -2.556123 -0.000000 0.000000
RightFoot 10.099550 -26.593685 0.899957
RightToeBase 28.734885 -0.000000 -0.000000
568
root 12.026809 33.075342 -22.045715 -190.024547 75.222124 -252.587961
Spine 65.268906 -13.415902 2.845791
Head -37.005413 -4.591676 6.987802
LeftShoulder -7.560373 -34.469585 22.199903
LeftArm -39.237352 -7.973668 -21.406380
LeftForeArm -39.777219 -0.000000 -5.437721
LeftHand -10.690938 -0.000000 0.046671
LeftHandThumb1 -26.253704 0.000000 33.147579
RightShoulder -10.627294 -1.148051 -12.612864
RightArm -42.389787 47.254799 13.434029
RightForeArm 16.844504 -0.000000 10.055441
RightHand -20.244162 0.000000 -15.374415
RightHandThumb1 -24.326973 -0.000000 -32.862282
LeftUpLeg -37.656206 -12.616581 -18.310552
LeftLeg -16.322059 -0.000000 0.000000
LeftFoot -6.599839 27.736750 15.748776
LeftToeBase -140.076189 -0.000000 0.000000
RightUpLeg -85.837860 -9.154411 -8.872213
RightLeg -2.610412 -0.000000 0.000000
RightFoot 10.132166 -26.655168 0.901605
RightToeBase 28.590052 -0.000000 -0.000000
569
root 12.032068 33.075974 -22.057139 -189.787430 75.248789 -252.364125
Spine 65.293575 -13.422047 2.900292
Head -37.031530 -4.529774 6.982672
LeftShoulder -7.510387 -34.468218 22.184468
LeftArm -39.226595 -7.994461 -21.410298
LeftForeArm -39.883061 0.000000 -5.418043
LeftHand -10.747346 -0.000000 -0.000519
LeftHandThumb1 -26.253704 0.000000 33.147579
RightShoulder -10.629434 -1.143228 -12.576717
RightArm -42.457634 47.279181 13.416550
RightForeArm 16.895760 -0.000000 10.106786
RightHand -20.266633 -0.000000 -15.487281
RightHandThumb1 -24.326973 -0.000000 -32.862282
LeftUpLeg -37.628324 -12.561202 -18.313870
LeftLeg -16.384607 -0.000000 0.000000
LeftFoot -6.592369 27.667815 15.760306
LeftToeBase -140.151324 -0.000000 0.000000
RightUpLeg -85.815406 -9.149488 -8.841619
RightLeg -2.645534 -0.000000 0.000000
RightFoot 10.135550 -26.655979 0.784025
RightToeBase 28.872288 -0.000000 -0.000000
